<?xml version="1.0" standalone="no"?>
<svg version="1.0" xmlns="http://www.w3.org/2000/svg"
 width="2000.000000pt" height="2000.000000pt" viewBox="0 0 2000.000000 2000.000000"
 preserveAspectRatio="xMidYMid meet">
<g transform="translate(0.000000,2000.000000) scale(0.100000,-0.100000)"
fill="currentColor" stroke="none">
<path d="M6335 11191 c271 -70 431 -239 503 -531 14 -56 16 -194 21 -1025
l6 -960 30 -60 c34 -69 91 -113 181 -142 49 -15 54 -19 54 -45 l0 -28 -670 0
-670 0 0 28 c0 25 5 30 43 42 71 21 133 57 166 97 64 77 62 39 59 1134 -3 952
-4 996 -22 1039 -31 72 -80 126 -144 156 -75 36 -232 45 -332 20 -90 -23 -229
-94 -328 -168 l-82 -62 2 -1010 c3 -1004 3 -1011 24 -1056 12 -25 34 -58 50
-74 31 -30 102 -69 147 -80 22 -5 27 -12 27 -36 l0 -30 -665 0 -665 0 0 29 c0
25 5 30 33 36 61 13 154 64 181 100 64 84 61 22 61 1090 0 913 -1 973 -18
1017 -24 61 -73 104 -145 123 -109 31 -107 30 -110 61 l-3 29 487 164 487 165
27 -30 c23 -27 28 -46 45 -175 27 -210 18 -197 95 -137 223 175 480 296 705
333 122 20 314 13 420 -14z m2769 -1 c281 -56 504 -175 696 -369 253 -255 377
-556 396 -966 14 -293 -46 -606 -161 -836 -115 -229 -329 -441 -564 -559 -82
-41 -245 -94 -358 -117 -127 -25 -520 -25 -646 0 -439 89 -756 326 -938 702
-90 187 -133 357 -149 598 -32 480 99 877 385 1169 213 217 505 358 823 397
120 15 400 5 516 -19z m5964 19 c175 -19 356 -69 520 -144 97 -45 88 -1 67
-350 -8 -132 -15 -255 -15 -272 0 -30 -3 -33 -29 -33 -27 0 -35 11 -131 182
-129 230 -180 308 -251 380 -93 95 -189 128 -368 128 -119 0 -202 -19 -307
-70 -98 -48 -166 -110 -202 -188 -23 -49 -27 -70 -27 -147 0 -105 13 -155 58
-221 81 -121 318 -249 611 -330 488 -134 700 -273 836 -543 56 -111 73 -197
74 -366 1 -117 -3 -165 -18 -220 -40 -149 -109 -266 -223 -376 -153 -149 -322
-231 -598 -289 -129 -27 -478 -39 -635 -21 -187 22 -455 102 -618 185 l-52 26
0 340 0 340 29 0 c27 0 36 -13 141 -197 145 -256 189 -320 280 -412 136 -138
272 -186 500 -178 204 7 329 51 438 152 107 99 146 210 124 357 -22 153 -102
260 -249 336 -106 55 -161 75 -438 162 -260 81 -394 141 -510 227 -202 150
-313 338 -334 564 -19 206 28 395 137 555 45 68 155 178 228 230 146 106 346
171 604 197 79 8 267 6 358 -4z m-3598 -54 l23 -24 -12 -418 c-8 -251 -12
-709 -9 -1148 l3 -730 24 -53 c29 -65 94 -124 170 -154 49 -20 74 -23 191 -23
114 0 147 4 210 23 81 26 229 98 272 134 l28 23 11 872 c13 1015 12 1081 -18
1139 -27 51 -51 67 -142 94 -67 21 -71 24 -71 51 0 16 2 29 5 29 2 0 221 47
485 105 264 58 486 105 493 105 7 0 26 -13 41 -29 l27 -28 -10 -414 c-14 -551
-14 -1956 0 -2035 6 -32 22 -76 35 -97 28 -42 99 -92 157 -109 31 -9 37 -15
37 -40 0 -15 -6 -28 -12 -28 -7 -1 -229 -13 -493 -29 -270 -16 -482 -24 -486
-19 -3 4 -16 77 -28 161 -13 83 -24 154 -26 155 -2 2 -48 -28 -102 -67 -182
-131 -344 -210 -513 -252 -84 -21 -118 -24 -290 -23 -169 0 -205 3 -274 22
-274 76 -439 245 -508 520 -21 81 -22 110 -23 447 0 198 2 599 4 890 4 516 4
531 -16 575 -28 63 -60 88 -150 120 -71 25 -78 30 -81 56 l-3 29 488 97 c268
53 500 97 514 97 15 1 35 -9 49 -24z"/>
<path d="M8665 11093 c-95 -23 -202 -94 -251 -167 -115 -171 -162 -452 -171
-1036 -12 -770 53 -1171 216 -1337 28 -28 76 -61 121 -82 75 -36 76 -36 211
-36 l135 0 76 37 c95 47 148 104 198 211 95 205 130 495 130 1082 0 928 -95
1239 -405 1321 -47 13 -217 17 -260 7z"/>
</g>
</svg>
