<svg version="1.1" id="Layer_1" xmlns="http://www.w3.org/2000/svg" xmlns:xlink="http://www.w3.org/1999/xlink" x="0px" y="0px"
	 width="100%" viewBox="0 0 2000 2000" enable-background="new 0 0 2000 2000" xml:space="preserve">
<path fill="#FEFEFE" opacity="1.000000" stroke="none"
	d="
M628.000000,1161.000977
	C611.704102,1161.000977 595.908142,1161.000977 580.016968,1161.000977
	C580.016968,1158.934326 580.016968,1157.298584 580.016968,1155.464722
	C583.452332,1154.291870 586.925293,1153.288330 590.256470,1151.935669
	C601.129211,1147.520874 606.457947,1139.181396 607.007629,1127.628906
	C607.150024,1124.635620 607.110168,1121.632446 607.110474,1118.633789
	C607.116089,1061.482910 607.102783,1004.332092 607.128052,947.181274
	C607.132080,938.113403 606.749939,929.057434 601.631287,921.205750
	C593.964172,909.444763 581.938416,907.342651 569.183533,907.741882
	C548.728882,908.382202 532.747803,919.106323 517.641663,931.449707
	C516.464478,932.411621 516.167847,934.961121 516.164124,936.774170
	C516.083557,976.263062 516.102783,1015.752136 516.102783,1055.241211
	C516.102783,1076.235352 516.102722,1097.229614 516.102722,1118.223755
	C516.102661,1142.344360 518.884033,1146.537476 540.950073,1155.534546
	C540.950073,1157.128418 540.950073,1158.778809 540.950073,1160.715332
	C496.747406,1160.715332 452.509918,1160.715332 408.006348,1160.715332
	C408.006348,1159.015503 408.006348,1157.282959 408.006348,1155.524048
	C412.097992,1154.111694 416.222015,1152.904663 420.174530,1151.280273
	C429.385010,1147.495361 433.961334,1140.200073 435.100494,1130.568115
	C435.451660,1127.598999 435.563660,1124.586182 435.565063,1121.593384
	C435.591339,1064.609131 435.622772,1007.624878 435.519989,950.640869
	C435.510742,945.524231 434.921417,940.349182 434.009369,935.308350
	C432.772064,928.469421 428.241547,924.256775 421.736938,922.161682
	C418.418060,921.092773 415.057556,920.130920 411.671783,919.300171
	C409.501984,918.767761 406.887268,918.479736 407.876099,915.477966
	C408.407135,913.865906 410.085114,912.001892 411.661835,911.457764
	C439.442780,901.870483 467.288177,892.470032 495.118866,883.026855
	C496.690002,882.493774 498.253204,881.937561 499.822784,881.399902
	C505.859131,879.332153 510.160431,882.262024 510.994446,888.838135
	C512.250488,898.742310 513.623596,908.631653 515.063538,919.398865
	C517.079041,917.783264 518.680420,916.523315 520.256714,915.232605
	C538.616333,900.199158 558.961731,888.762695 581.957886,882.702332
	C601.979126,877.425903 622.188171,877.207947 641.973816,884.054443
	C666.921509,892.687012 680.191895,911.367493 684.791382,936.507874
	C686.546387,946.100525 687.032959,956.032410 687.072571,965.813904
	C687.284485,1018.131897 687.163086,1070.451172 687.177368,1122.770020
	C687.182312,1140.945557 693.046143,1148.864624 710.256897,1154.103149
	C711.370117,1154.441895 712.466858,1154.835327 713.795288,1155.277954
	C713.795288,1156.978271 713.795288,1158.757202 713.795288,1161.000977
	C685.407898,1161.000977 656.953918,1161.000977 628.000000,1161.000977
z"/>
<path fill="#FEFEFE" opacity="1.000000" stroke="none"
	d="
M1308.830566,883.943970
	C1317.066406,881.885803 1321.017456,885.092041 1320.950317,893.280457
	C1320.335205,968.269348 1319.734497,1043.258423 1319.134155,1118.247437
	C1319.118164,1120.246948 1319.119995,1122.247925 1319.170044,1124.246704
	C1319.639404,1142.989258 1324.813110,1149.802979 1342.891113,1155.270386
	C1342.891113,1156.965088 1342.891113,1158.735962 1342.891113,1161.000000
	C1310.071167,1162.906006 1277.198486,1164.815186 1243.768066,1166.756714
	C1242.071045,1155.872314 1240.389526,1145.087036 1238.559692,1133.350098
	C1236.292969,1135.076904 1234.412720,1136.534424 1232.506470,1137.957153
	C1215.189209,1150.882446 1196.899536,1162.090820 1175.405640,1166.368896
	C1149.923218,1171.440796 1124.689209,1171.547607 1101.174927,1158.289062
	C1082.660156,1147.849365 1072.737061,1131.228394 1069.128052,1110.741577
	C1067.748779,1102.913208 1067.027710,1094.853760 1067.081543,1086.906982
	C1067.407349,1038.744141 1068.057251,990.583679 1068.552734,942.421936
	C1068.593750,938.430542 1068.460327,934.421143 1068.118408,930.445068
	C1067.213379,919.919800 1062.345215,914.078125 1052.293457,911.112427
	C1050.543701,910.596191 1048.849976,909.818115 1047.069824,909.490417
	C1043.197510,908.777649 1042.316406,906.472656 1043.422119,902.476074
	C1054.011353,900.368713 1064.878662,898.189331 1075.752808,896.045410
	C1097.127930,891.831238 1118.510986,887.658020 1139.881470,883.421265
	C1146.239868,882.160706 1150.564941,885.614136 1150.247803,892.026611
	C1146.757202,962.641724 1147.669067,1033.310791 1147.637573,1103.967896
	C1147.633545,1112.881714 1148.475952,1121.718018 1154.490356,1128.909546
	C1160.806030,1136.461304 1169.445068,1139.908691 1178.959717,1140.866699
	C1199.986694,1142.983765 1218.687744,1136.522827 1235.667603,1124.498901
	C1236.882935,1123.638184 1237.919312,1121.608521 1237.939087,1120.107910
	C1238.746826,1058.949707 1239.429688,997.789917 1240.117554,936.630249
	C1240.136230,934.964966 1240.089355,933.295044 1239.982422,931.633057
	C1239.256714,920.355591 1234.564697,914.760986 1223.596558,912.014160
	C1221.182495,911.409485 1218.784302,910.741516 1216.157227,910.043884
	C1216.157227,908.193665 1216.157227,906.432495 1216.157227,904.185669
	C1246.805420,897.480286 1277.608032,890.741150 1308.830566,883.943970
z"/>
<path fill="#FEFEFE" opacity="1.000000" stroke="none"
	d="
M753.026794,954.035767
	C769.818604,921.000854 795.396790,898.334534 830.224304,886.886963
	C866.070251,875.104797 902.255188,875.390320 937.246643,889.601990
	C982.348206,907.919861 1008.961182,942.333374 1017.828003,989.950317
	C1023.969177,1022.929688 1022.216736,1055.777710 1009.717834,1087.191772
	C993.179016,1128.759644 962.656921,1155.083130 918.995850,1164.989746
	C884.990295,1172.705566 851.129028,1171.366699 818.516052,1157.970215
	C783.388367,1143.541016 759.643799,1117.713989 747.837463,1081.897339
	C733.699646,1039.007568 734.207886,996.214539 753.026794,954.035767
M836.448120,1128.895996
	C840.363586,1134.999634 843.304077,1142.107178 848.369690,1147.026367
	C866.599060,1164.728638 910.760010,1164.430908 922.953003,1129.187378
	C929.223816,1111.061890 932.357910,1092.350220 932.771851,1073.404663
	C933.484253,1040.801392 933.834778,1008.138733 932.609436,975.565979
	C931.977722,958.774780 928.160645,942.013367 924.747742,925.451782
	C922.802917,916.014282 918.155884,907.424255 910.556885,900.799988
	C892.224731,884.819031 848.292480,884.829163 836.112793,920.238037
	C829.591858,939.195679 826.760193,958.775879 826.266479,978.540283
	C825.501892,1009.147400 825.526978,1039.800415 826.256287,1070.409058
	C826.723450,1090.015625 829.260010,1109.542480 836.448120,1128.895996
z"/>
<path fill="#FEFEFE" opacity="1.000000" stroke="none"
	d="
M1528.667480,995.384766
	C1546.652222,1002.249878 1562.865601,1011.060669 1574.949341,1026.118042
	C1601.419922,1059.102417 1601.091919,1121.825928 1549.355347,1151.112183
	C1529.657959,1162.262207 1508.295898,1167.030273 1486.032471,1168.795654
	C1449.043091,1171.728882 1413.770752,1165.532715 1380.541626,1148.780518
	C1378.889282,1147.947632 1376.916992,1145.622070 1376.907104,1143.980591
	C1376.782227,1123.152100 1376.987793,1102.321533 1377.124146,1081.491699
	C1377.128296,1080.851196 1377.294312,1080.211914 1377.378052,1079.621094
	C1381.077881,1078.322266 1383.144409,1079.506836 1385.051270,1082.829956
	C1393.730225,1097.953857 1402.176758,1113.252441 1411.689209,1127.847778
	C1429.734619,1155.535522 1456.234131,1162.243652 1487.176514,1156.433716
	C1497.979370,1154.405518 1507.936646,1150.283081 1516.086670,1142.708862
	C1535.921997,1124.274780 1532.473022,1091.298096 1509.196655,1076.441895
	C1494.861938,1067.292847 1478.652954,1062.782837 1462.585083,1057.973999
	C1446.023438,1053.017334 1429.606323,1047.853394 1414.636108,1038.783813
	C1361.083618,1006.340088 1363.277588,936.537659 1407.315796,902.519409
	C1424.625610,889.148071 1444.374390,882.857666 1465.723145,880.379456
	C1500.117188,876.386902 1533.043701,881.040344 1564.274658,896.476440
	C1567.246460,897.945312 1568.322144,899.440979 1568.100464,902.809753
	C1566.866089,921.580505 1565.892090,940.368347 1564.825684,959.210510
	C1560.980835,960.816772 1558.889648,959.559509 1556.884155,956.039856
	C1548.581177,941.467163 1540.157837,926.953552 1531.378540,912.664062
	C1520.946411,895.684387 1504.775391,890.044922 1485.716797,890.613342
	C1473.338867,890.982483 1461.920288,894.400146 1451.125854,900.513428
	C1425.569214,914.987122 1429.076416,950.374756 1448.578369,963.615295
	C1465.879150,975.361267 1485.057861,982.484314 1505.017578,987.986145
	C1512.853516,990.146118 1520.557129,992.785950 1528.667480,995.384766
z"/>
<path fill="#BD5504" opacity="1.000000" stroke="none"
	d="
M1156.402588,761.591187
	C1173.177246,777.925720 1172.109375,803.201294 1160.147461,817.794617
	C1144.098877,837.373352 1116.735229,839.356262 1097.825317,821.975098
	C1080.719482,806.252197 1080.948120,777.908203 1098.315796,761.169495
	C1114.234863,745.826904 1139.073120,745.901733 1156.402588,761.591187
z"/>
<path fill="#BD5504" opacity="1.000000" stroke="none"
	d="
M1218.955322,803.936646
	C1210.699707,777.416870 1231.474609,749.699097 1258.962891,749.675781
	C1281.538330,749.656677 1299.321167,768.119141 1300.849365,786.885681
	C1302.804443,810.894592 1288.062256,829.840393 1265.174438,833.229065
	C1244.620728,836.272095 1225.659302,824.393066 1218.955322,803.936646
z"/>
<path fill="#010101" opacity="1.000000" stroke="none"
	d="
M836.291260,1128.541626
	C829.260010,1109.542480 826.723450,1090.015625 826.256287,1070.409058
	C825.526978,1039.800415 825.501892,1009.147400 826.266479,978.540283
	C826.760193,958.775879 829.591858,939.195679 836.112793,920.238037
	C848.292480,884.829163 892.224731,884.819031 910.556885,900.799988
	C918.155884,907.424255 922.802917,916.014282 924.747742,925.451782
	C928.160645,942.013367 931.977722,958.774780 932.609436,975.565979
	C933.834778,1008.138733 933.484253,1040.801392 932.771851,1073.404663
	C932.357910,1092.350220 929.223816,1111.061890 922.953003,1129.187378
	C910.760010,1164.430908 866.599060,1164.728638 848.369690,1147.026367
	C843.304077,1142.107178 840.363586,1134.999634 836.291260,1128.541626
z"/>
</svg>
